<?xml version="1.0" encoding="UTF-8" standalone="no"?>
<svg
   xmlns:svg="http://www.w3.org/2000/svg"
   xmlns="http://www.w3.org/2000/svg"
   xmlns:sodipodi="http://sodipodi.sourceforge.net/DTD/sodipodi-0.dtd"
   xmlns:inkscape="http://www.inkscape.org/namespaces/inkscape"
   version="1.1"
   id="svg2"
   width="279.84"
   height="98.360001"
   viewBox="0 0 279.84 98.360001"
   sodipodi:docname="TiffanyFS.svg"
   inkscape:version="1.1-dev (1:0.92.0+devel+202005110039+9ce7266)">
  <defs
     id="defs6">
    <rect
       x="3.7360059"
       y="5.6396794"
       width="272.25228"
       height="256.55562"
       id="rect829" />
  </defs>
  <sodipodi:namedview
     pagecolor="#ffffff"
     bordercolor="#666666"
     borderopacity="1"
     objecttolerance="10"
     gridtolerance="10"
     guidetolerance="10"
     inkscape:pageopacity="0"
     inkscape:pageshadow="2"
     inkscape:window-width="1920"
     inkscape:window-height="1017"
     id="namedview4"
     showgrid="false"
     inkscape:zoom="2.6860153"
     inkscape:cx="70.307655"
     inkscape:cy="77.356004"
     inkscape:window-x="0"
     inkscape:window-y="30"
     inkscape:window-maximized="1"
     inkscape:current-layer="g8" />
  <g
     inkscape:groupmode="layer"
     inkscape:label="Image"
     id="g8">
    <g
       aria-label="FS"
       transform="matrix(1.1393322,0,0,1.1393322,-22.227671,-41.524302)"
       id="text827"
       style="font-style:normal;font-variant:normal;font-weight:normal;font-stretch:normal;font-size:192px;font-family:'Tiffany Gothic CC';-inkscape-font-specification:'Tiffany Gothic CC';text-align:center;letter-spacing:0px;word-spacing:0px;text-anchor:middle;white-space:pre;shape-inside:url(#rect829);fill:#28170b">
      <path
         d="m 126.8528,70.992973 -12.096,-13.248 H 49.284805 v 35.904 h 39.744 l 5.376,-9.216 h 0.96 l 7.487995,37.055997 -0.96,0.576 -9.599995,-9.984 h -43.008 v 54.528 l 6.336,5.376 -0.192,0.96 h -32.832 l -0.192,-0.96 6.72,-5.76 V 45.264973 l -6.72,-5.76 0.192,-0.96 H 118.9808 l 8.832,31.872 z"
         style="font-style:normal;font-variant:normal;font-weight:normal;font-stretch:normal;font-size:192px;font-family:'Tiffany Gothic CC';-inkscape-font-specification:'Tiffany Gothic CC';text-align:center;text-anchor:middle;fill:#28170b"
         id="path833" />
      <path
         d="m 139.6538,126.86497 q 6.72,8.064 16.704,15.168 10.176,6.912 22.656,11.328 12.48,4.224 26.304,4.224 16.512,0 26.304,-5.568 9.792,-5.568 9.792,-15.168 0,-5.76 -3.456,-9.984 -3.264,-4.224 -11.52,-6.72 -8.064,-2.688 -22.464,-3.84 -30.72,-2.496 -46.464,-11.52 -15.744,-9.215997 -15.744,-28.223997 0,-11.904 6.912,-20.736 7.104,-8.832 19.776,-13.632 12.864,-4.992 29.952,-4.992 11.136,0 22.272,3.072 11.328,2.88 18.816,6.72 l 7.104,-7.488 0.96,0.192 10.56,42.624 -1.344,0.576 q -7.104,-8.064 -15.936,-14.208 -8.64,-6.144 -19.776,-9.6 -11.136,-3.456 -25.92,-3.456 -8.064,0 -15.36,2.304 -7.296,2.304 -11.904,6.528 -4.608,4.224 -4.608,9.984 0,9.216 11.52,14.4 11.712,4.992 34.752,6.72 19.584,1.344 31.296,6.527997 11.904,4.992 17.088,13.44 5.184,8.448 5.184,20.16 0,12.288 -7.488,21.504 -7.296,9.216 -20.16,14.4 -12.864,5.184 -29.376,5.184 -16.896,0 -28.416,-3.84 -11.52,-3.84 -19.392,-9.408 l -9.408,6.72 -0.96,-0.192 -9.6,-42.624 z"
         style="font-style:normal;font-variant:normal;font-weight:normal;font-stretch:normal;font-size:192px;font-family:'Tiffany Gothic CC';-inkscape-font-specification:'Tiffany Gothic CC';text-align:center;text-anchor:middle;fill:#28170b"
         id="path835" />
    </g>
  </g>
</svg>
